{
  "accessors": [
    {
      "bufferView": 2,
      "componentType": 5126,
      "count": 3686,
      "max": [
        0.8821079730987549,
        0.3401150107383728,
        0.3414340019226074
      ],
      "min": [
        -0.1077909991145134,
        -0.5464609861373901,
        -0.3482159972190857
      ],
      "type": "VEC3"
    },
    {
      "bufferView": 2,
      "byteOffset": 44232,
      "componentType": 5126,
      "count": 3686,
      "max": [
        0.9996645450592041,
        0.8470239043235779,
        0.9996827840805054
      ],
      "min": [
        -0.9990166425704956,
        -0.9988406300544739,
        -0.999974250793457
      ],
      "type": "VEC3"
    },
    {
      "bufferView": 3,
      "componentType": 5126,
      "count": 3686,
      "max": [
        0.99225914478302,
        0.9954747557640076,
        0.9999756813049316,
        1.0
      ],
      "min": [
        -0.9993823766708374,
        -0.9876542091369629,
        -0.9965444803237915,
        -1.0
      ],
      "type": "VEC4"
    },
    {
      "bufferView": 1,
      "componentType": 5126,
      "count": 3686,
      "max": [
        0.9686409831047058,
        0.8316119909286499
      ],
      "min": [
        0.0,
        0.0
      ],
      "type": "VEC2"
    },
    {
      "bufferView": 0,
      "componentType": 5125,
      "count": 19809,
      "type": "SCALAR"
    },
    {
      "bufferView": 2,
      "byteOffset": 88464,
      "componentType": 5126,
      "count": 15500,
      "max": [
        1.0,
        0.5464609861373901,
        0.42362600564956665
      ],
      "min": [
        -1.0,
        -0.5464609861373901,
        -0.42362600564956665
      ],
      "type": "VEC3"
    },
    {
      "bufferView": 2,
      "byteOffset": 274464,
      "componentType": 5126,
      "count": 15500,
      "max": [
        0.9998893737792969,
        0.999984860420227,
        0.9999803304672241
      ],
      "min": [
        -0.9997248649597168,
        -0.999801516532898,
        -0.9999982118606567
      ],
      "type": "VEC3"
    },
    {
      "bufferView": 3,
      "byteOffset": 58976,
      "componentType": 5126,
      "count": 15500,
      "max": [
        0.9999526739120483,
        0.9999840259552002,
        0.9999004602432251,
        1.0
      ],
      "min": [
        -0.999837338924408,
        -0.9999644756317139,
        -0.9988129138946533,
        -1.0
      ],
      "type": "VEC4"
    },
    {
      "bufferView": 1,
      "byteOffset": 29488,
      "componentType": 5126,
      "count": 15500,
      "max": [
        1.0,
        0.9877499938011169
      ],
      "min": [
        0.0,
        0.0
      ],
      "type": "VEC2"
    },
    {
      "bufferView": 0,
      "byteOffset": 79236,
      "componentType": 5125,
      "count": 83715,
      "type": "SCALAR"
    }
  ],
  "asset": {
    "extras": {
      "author": "PanzerFuchs (https://sketchfab.com/PanzerFuchs)",
      "license": "CC-BY-4.0 (http://creativecommons.org/licenses/by/4.0/)",
      "source": "https://sketchfab.com/3d-models/kawaii-fila-shoe-da57ed64a8034c87a0729c4265d37df1",
      "title": "Kawaii Fila Shoe"
    },
    "generator": "Sketchfab-12.66.0",
    "version": "2.0"
  },
  "bufferViews": [
    {
      "buffer": 0,
      "byteLength": 414096,
      "name": "floatBufferViews",
      "target": 34963
    },
    {
      "buffer": 0,
      "byteLength": 153488,
      "byteOffset": 414096,
      "byteStride": 8,
      "name": "floatBufferViews",
      "target": 34962
    },
    {
      "buffer": 0,
      "byteLength": 460464,
      "byteOffset": 567584,
      "byteStride": 12,
      "name": "floatBufferViews",
      "target": 34962
    },
    {
      "buffer": 0,
      "byteLength": 306976,
      "byteOffset": 1028048,
      "byteStride": 16,
      "name": "floatBufferViews",
      "target": 34962
    }
  ],
  "buffers": [
    {
      "byteLength": 1335024,
      "uri": "scene.bin"
    }
  ],
  "images": [
    {
      "uri": "textures/lambert4SG_baseColor.jpeg"
    },
    {
      "uri": "textures/lambert4SG_metallicRoughness.png"
    },
    {
      "uri": "textures/lambert4SG_normal.png"
    }
  ],
  "materials": [
    {
      "doubleSided": true,
      "name": "lambert4SG",
      "normalTexture": {
        "index": 2
      },
      "occlusionTexture": {
        "index": 1
      },
      "pbrMetallicRoughness": {
        "baseColorTexture": {
          "index": 0
        },
        "metallicRoughnessTexture": {
          "index": 1
        }
      }
    }
  ],
  "meshes": [
    {
      "name": "defaultMaterial",
      "primitives": [
        {
          "attributes": {
            "NORMAL": 1,
            "POSITION": 0,
            "TANGENT": 2,
            "TEXCOORD_0": 3
          },
          "indices": 4,
          "material": 0,
          "mode": 4
        }
      ]
    },
    {
      "name": "defaultMaterial",
      "primitives": [
        {
          "attributes": {
            "NORMAL": 6,
            "POSITION": 5,
            "TANGENT": 7,
            "TEXCOORD_0": 8
          },
          "indices": 9,
          "material": 0,
          "mode": 4
        }
      ]
    }
  ],
  "nodes": [
    {
      "children": [
        1
      ],
      "matrix": [
        1.0,
        0.0,
        0.0,
        0.0,
        0.0,
        0.0096133481711147,
        0.9999538064002991,
        0.0,
        0.0,
        -0.9999538064002991,
        0.0096133481711147,
        0.0,
        0.0,
        -0.00019315393001306805,
        6.657033372903239e-05,
        1.0
      ],
      "name": "Sketchfab_model"
    },
    {
      "children": [
        2,
        4
      ],
      "matrix": [
        1.0,
        0.0,
        0.0,
        0.0,
        0.0,
        -4.371139006309477e-08,
        0.999999999999999,
        0.0,
        0.0,
        -0.999999999999999,
        -4.371139006309477e-08,
        0.0,
        0.0,
        0.0,
        0.0,
        1.0
      ],
      "name": "Collada visual scene group"
    },
    {
      "children": [
        3
      ],
      "name": "g"
    },
    {
      "mesh": 0,
      "name": "defaultMaterial"
    },
    {
      "children": [
        5
      ],
      "name": "g"
    },
    {
      "mesh": 1,
      "name": "defaultMaterial"
    }
  ],
  "samplers": [
    {
      "magFilter": 9729,
      "minFilter": 9987,
      "wrapS": 10497,
      "wrapT": 10497
    }
  ],
  "scene": 0,
  "scenes": [
    {
      "name": "Sketchfab_Scene",
      "nodes": [
        0
      ]
    }
  ],
  "textures": [
    {
      "sampler": 0,
      "source": 0
    },
    {
      "sampler": 0,
      "source": 1
    },
    {
      "sampler": 0,
      "source": 2
    }
  ]
}
